# xmcd
#
# Track frame offsets: 
#        213
#        15512
#        25951
#        40671
#        53954
#        66655
#        80508
#        94614
#        108034
#        122120
#        134776
#        147590
#        162975
#        174198
#        185076
#        198480
#        210091
#        230753
#        241466
#        250804
#        266619
#        276678
#        289109
#        299320
#        314858
#
# Disc length: 4423 seconds
#
# Revision: 0
# Processed by: cddbd v1.5.2PL0 Copyright (c) Steve Scherf et al.
# Submitted via: ExactAudioCopy v0.95b4
#
DISCID=87114519
DTITLE=VERN GOSDIN - 40 YEARS OF THE VOICE 4D
DYEAR=2008
DGENRE=COUNTRY
TTITLE0=I'LL UNDERSTAND
TTITLE1=I'M GONNA BE MOVIN'
TTITLE2=I'M WHERE A MEMORY CAN DIE
TTITLE3=IMPOSSIBLE MILE
TTITLE4=IS IT RAINING AT YOUR HOUSE
TTITLE5=TURN, TURN, TURN
TTITLE6=24K HEARTACHE
TTITLE7=LOVE ROLLED AWAY THE STONE
TTITLE8=RUNNING OUT OF REASONS TO LEAVE
TTITLE9=SARAH'S EYES
TTITLE10=SLOW BURNING MEMORY
TTITLE11=THE BIGGEST LITTLE ARMS
TTITLE12=IT'S ALL COMING BACK TO ME NOW
TTITLE13=A PICTURE OF ME
TTITLE14=JESUS HOLD MY HAND
TTITLE15=LIKES OF JESUS LOVING ME
TTITLE16=WHAT'S A COUNTRY COMIN' TO
TTITLE17=THAT OLE SILVER TONE
TTITLE18=LET'S GET DOWN TO BUSINESS
TTITLE19=MONTEAGLE
TTITLE20=SANTA'S DRIVING A CHEVROLET THIS YEAR
TTITLE21=ROCKABYE KATIE
TTITLE22=JOY TO THE WORLD
TTITLE23=COLDEST BEDROOM
TTITLE24=THIS SONG WROTE ITSELF
EXTD=
EXTT0=
EXTT1=
EXTT2=
EXTT3=
EXTT4=
EXTT5=
EXTT6=
EXTT7=
EXTT8=
EXTT9=
EXTT10=
EXTT11=
EXTT12=
EXTT13=
EXTT14=
EXTT15=
EXTT16=
EXTT17=
EXTT18=
EXTT19=
EXTT20=
EXTT21=
EXTT22=
EXTT23=
EXTT24=
PLAYORDER=
